<?xml version="1.0" encoding="UTF-8" standalone="no"?>
<!-- Created with Inkscape (http://www.inkscape.org/) -->

<svg
   xmlns:osb="http://www.openswatchbook.org/uri/2009/osb"
   xmlns:dc="http://purl.org/dc/elements/1.1/"
   xmlns:cc="http://creativecommons.org/ns#"
   xmlns:rdf="http://www.w3.org/1999/02/22-rdf-syntax-ns#"
   xmlns:svg="http://www.w3.org/2000/svg"
   xmlns="http://www.w3.org/2000/svg"
   xmlns:xlink="http://www.w3.org/1999/xlink"
   xmlns:sodipodi="http://sodipodi.sourceforge.net/DTD/sodipodi-0.dtd"
   xmlns:inkscape="http://www.inkscape.org/namespaces/inkscape"
   width="744.09448819"
   height="1052.3622047"
   id="svg2"
   version="1.1"
   inkscape:version="0.48.5 r10040"
   sodipodi:docname="detPos.svg"
   inkscape:export-filename="/users/payno/Documents/dev/esrf/freeART/tomoGUI/doc/image/freeartDetPos.png"
   inkscape:export-xdpi="200"
   inkscape:export-ydpi="200">
  <defs
     id="defs4">
    <linearGradient
       inkscape:collect="always"
       id="linearGradient7446">
      <stop
         style="stop-color:#00a70b;stop-opacity:1;"
         offset="0"
         id="stop7448" />
      <stop
         style="stop-color:#00a70b;stop-opacity:0;"
         offset="1"
         id="stop7450" />
    </linearGradient>
    <marker
       inkscape:stockid="EmptyTriangleInL"
       orient="auto"
       refY="0.0"
       refX="0.0"
       id="EmptyTriangleInL"
       style="overflow:visible">
      <path
         id="path5368"
         d="M 5.77,0.0 L -2.88,5.0 L -2.88,-5.0 L 5.77,0.0 z "
         style="fill-rule:evenodd;fill:#FFFFFF;stroke:#000000;stroke-width:1.0pt"
         transform="scale(-0.8) translate(-6,0)" />
    </marker>
    <marker
       inkscape:stockid="Arrow1Lstart"
       orient="auto"
       refY="0.0"
       refX="0.0"
       id="Arrow1Lstart"
       style="overflow:visible">
      <path
         id="path5217"
         d="M 0.0,0.0 L 5.0,-5.0 L -12.5,0.0 L 5.0,5.0 L 0.0,0.0 z "
         style="fill-rule:evenodd;stroke:#000000;stroke-width:1.0pt"
         transform="scale(0.8) translate(12.5,0)" />
    </marker>
    <marker
       inkscape:stockid="Arrow1Sstart"
       orient="auto"
       refY="0.0"
       refX="0.0"
       id="Arrow1Sstart"
       style="overflow:visible">
      <path
         id="path5229"
         d="M 0.0,0.0 L 5.0,-5.0 L -12.5,0.0 L 5.0,5.0 L 0.0,0.0 z "
         style="fill-rule:evenodd;stroke:#000000;stroke-width:1.0pt"
         transform="scale(0.2) translate(6,0)" />
    </marker>
    <marker
       inkscape:stockid="Tail"
       orient="auto"
       refY="0.0"
       refX="0.0"
       id="Tail"
       style="overflow:visible">
      <g
         id="g5253"
         transform="scale(-1.2)">
        <path
           id="path5255"
           d="M -3.8048674,-3.9585227 L 0.54352094,0"
           style="fill:none;fill-rule:evenodd;stroke:#000000;stroke-width:0.8;stroke-linecap:round" />
        <path
           id="path5257"
           d="M -1.2866832,-3.9585227 L 3.0617053,0"
           style="fill:none;fill-rule:evenodd;stroke:#000000;stroke-width:0.8;stroke-linecap:round" />
        <path
           id="path5259"
           d="M 1.3053582,-3.9585227 L 5.6537466,0"
           style="fill:none;fill-rule:evenodd;stroke:#000000;stroke-width:0.8;stroke-linecap:round" />
        <path
           id="path5261"
           d="M -3.8048674,4.1775838 L 0.54352094,0.21974226"
           style="fill:none;fill-rule:evenodd;stroke:#000000;stroke-width:0.8;stroke-linecap:round" />
        <path
           id="path5263"
           d="M -1.2866832,4.1775838 L 3.0617053,0.21974226"
           style="fill:none;fill-rule:evenodd;stroke:#000000;stroke-width:0.8;stroke-linecap:round" />
        <path
           id="path5265"
           d="M 1.3053582,4.1775838 L 5.6537466,0.21974226"
           style="fill:none;fill-rule:evenodd;stroke:#000000;stroke-width:0.8;stroke-linecap:round" />
      </g>
    </marker>
    <marker
       inkscape:stockid="Arrow2Mend"
       orient="auto"
       refY="0.0"
       refX="0.0"
       id="Arrow2Mend"
       style="overflow:visible;">
      <path
         id="path5244"
         style="fill-rule:evenodd;stroke-width:0.62500000;stroke-linejoin:round;"
         d="M 8.7185878,4.0337352 L -2.2072895,0.016013256 L 8.7185884,-4.0017078 C 6.9730900,-1.6296469 6.9831476,1.6157441 8.7185878,4.0337352 z "
         transform="scale(0.6) rotate(180) translate(0,0)" />
    </marker>
    <marker
       inkscape:stockid="Arrow1Mend"
       orient="auto"
       refY="0.0"
       refX="0.0"
       id="Arrow1Mend"
       style="overflow:visible;">
      <path
         id="path5226"
         d="M 0.0,0.0 L 5.0,-5.0 L -12.5,0.0 L 5.0,5.0 L 0.0,0.0 z "
         style="fill-rule:evenodd;stroke:#000000;stroke-width:1.0pt;"
         transform="scale(0.4) rotate(180) translate(10,0)" />
    </marker>
    <linearGradient
       id="linearGradient5199"
       osb:paint="solid">
      <stop
         style="stop-color:#fe0000;stop-opacity:1;"
         offset="0"
         id="stop5201" />
    </linearGradient>
    <linearGradient
       inkscape:collect="always"
       xlink:href="#linearGradient7446"
       id="linearGradient7452"
       x1="383.36301"
       y1="423.75281"
       x2="402.65402"
       y2="423.75281"
       gradientUnits="userSpaceOnUse" />
  </defs>
  <sodipodi:namedview
     id="base"
     pagecolor="#ffffff"
     bordercolor="#666666"
     borderopacity="1.0"
     inkscape:pageopacity="0.0"
     inkscape:pageshadow="2"
     inkscape:zoom="2.8"
     inkscape:cx="306.66332"
     inkscape:cy="637.75623"
     inkscape:document-units="px"
     inkscape:current-layer="layer1"
     showgrid="false"
     inkscape:window-width="1920"
     inkscape:window-height="1178"
     inkscape:window-x="1920"
     inkscape:window-y="0"
     inkscape:window-maximized="1" />
  <metadata
     id="metadata7">
    <rdf:RDF>
      <cc:Work
         rdf:about="">
        <dc:format>image/svg+xml</dc:format>
        <dc:type
           rdf:resource="http://purl.org/dc/dcmitype/StillImage" />
        <dc:title></dc:title>
      </cc:Work>
    </rdf:RDF>
  </metadata>
  <g
     inkscape:label="Layer 1"
     inkscape:groupmode="layer"
     id="layer1">
    <rect
       style="fill:#d40000;fill-opacity:0;stroke:#ff0000;stroke-width:1.62966228000000002;stroke-miterlimit:4;stroke-opacity:1;stroke-dasharray:none"
       id="rect5205"
       width="60"
       height="136.34683"
       x="477.14285"
       y="416.01535" />
    <path
       style="fill:none;stroke:#6c5f34;stroke-width:1px;stroke-linecap:butt;stroke-linejoin:miter;stroke-opacity:1"
       d="m 287,438.93361 c 28.47571,0 3.18395,2.69374 14.28572,-2.85714 0.85183,-0.42592 2.0053,0.42592 2.85714,0 1.20468,-0.60234 1.65247,-2.25481 2.85714,-2.85714 0.85184,-0.42592 2.00531,0.42591 2.85715,0 5.26004,-2.63003 0.45424,-5.94141 5.71428,-8.57143 0.85184,-0.42592 2.00531,0.42591 2.85714,0 2.18254,-1.09127 6.63672,-7.92653 8.57143,-8.57143 1.80702,-0.60234 5.71429,-1.90476 5.71429,0 0,1.90476 -7.61905,0 -5.71429,0 2.85715,0 5.71429,0 8.57143,0 1.90476,0 3.90727,-0.60234 5.71429,0 2.0203,0.67343 3.69398,2.18371 5.71428,2.85714 3.54692,1.18231 3.11298,-2.34547 5.71429,2.85714 1.14286,2.28572 -1.14286,6.28572 0,8.57143 3.71025,7.4205 13.51309,-1.54524 17.14286,5.71429 0.61012,1.22024 0,13.15625 0,14.28571 0,1.90476 0,3.80953 0,5.71429 0,0.95238 0.95238,2.85714 0,2.85714 -0.95239,0 -0.67344,-3.53058 0,-2.85714 1.50584,1.50584 1.35129,4.20844 2.85714,5.71428 1.34687,1.34687 4.01061,-0.85183 5.71428,0 1.20468,0.60234 1.90477,1.90477 2.85715,2.85715 0.95238,0.95238 2.2548,1.65246 2.85714,2.85714 0.42592,0.85184 -0.42592,2.00531 0,2.85714 0.60234,1.20468 2.43123,1.57939 2.85714,2.85715 0.15057,0.45168 0.31872,18.72511 0,20 -0.5165,2.066 -2.1837,3.69398 -2.85714,5.71428 -0.90351,2.71052 0.90351,5.86091 0,8.57143 -1.35225,4.05676 -5.54693,2.85714 -8.57143,2.85714 -5.71428,0 -11.42857,0 -17.14286,0 -1.90476,0 -3.80952,0 -5.71428,0 -0.95238,0 -2.00531,-0.42592 -2.85714,0 -1.47584,0.73792 -13.31655,13.31654 -14.28572,14.28572 -0.95238,0.95238 -1.65246,2.2548 -2.85714,2.85714 -0.85184,0.42592 -1.90476,0 -2.85714,0 -1.90477,0 -3.80953,0 -5.71429,0 -1.28674,0 -7.7019,0.43476 -8.57143,0 -1.20468,-0.60234 -1.65246,-2.2548 -2.85714,-2.85714 -1.70367,-0.85184 -4.01062,0.85183 -5.71429,0 -3.42857,-1.71429 -5.14285,-6.85715 -8.57143,-8.57143 -0.85183,-0.42592 -2.0053,0.42592 -2.85714,0 -1.20468,-0.60234 -2.2548,-1.65247 -2.85714,-2.85714 -0.42592,-0.85184 0,-1.90477 0,-2.85715 0,-0.95238 0,-1.90476 0,-2.85714 0,-4.76191 0,-9.52381 0,-14.28571 0,-1.52633 -0.40886,-13.468 0,-14.28572 1.71428,-3.42857 6.85714,-5.14286 8.57143,-8.57143 1.67512,-3.35025 -1.69556,-3.3911 -2.85715,-5.71428 -0.42591,-0.85184 0,-1.90477 0,-2.85715 0,-1.90476 -1.90476,-5.71428 0,-5.71428 1.90477,0 1.05658,7.29914 0,5.71428 -4.72513,-7.0877 -7.61904,-15.23809 -11.42857,-22.85714 z"
       id="path5207"
       inkscape:connector-curvature="0" />
    <path
       style="fill:none;stroke:#000000;stroke-width:1.36300000000000021;stroke-linecap:butt;stroke-linejoin:miter;stroke-opacity:1;stroke-miterlimit:4;stroke-dasharray:1.36300000000000021, 2.72599999999999998;stroke-dashoffset:0;marker-start:url(#Arrow1Mend);marker-end:url(#Arrow2Mend)"
       d="m 331.42857,321.6479 -0.71429,157.84481 145.00001,0.0123"
       id="path5211"
       inkscape:connector-curvature="0" />
    <text
       xml:space="preserve"
       style="font-size:40px;font-style:normal;font-weight:normal;line-height:121.00000381%;letter-spacing:0px;word-spacing:0px;fill:#000000;fill-opacity:1;stroke:#310000;stroke-opacity:1;font-family:Sans"
       x="318.72186"
       y="-318.30496"
       id="text6593"
       sodipodi:linespacing="121%"
       transform="matrix(0,1,-1,0,0,0)"><tspan
         sodipodi:role="line"
         id="tspan6595"
         x="318.72186"
         y="-318.30496"
         style="font-size:9px;font-style:normal;font-variant:normal;font-weight:normal;font-stretch:normal;line-height:121.00000381%;opacity:0.2;fill:#000000;fill-opacity:1;stroke:#310000;stroke-opacity:1;font-family:Amiri Quran;-inkscape-font-specification:Amiri Quran">Incoming ray</tspan></text>
    <text
       xml:space="preserve"
       style="font-size:40px;font-style:normal;font-weight:normal;line-height:125%;letter-spacing:0px;word-spacing:0px;fill:#000000;fill-opacity:1;stroke:none;font-family:Sans"
       x="354.85715"
       y="488.79074"
       id="text6597"
       sodipodi:linespacing="125%"><tspan
         sodipodi:role="line"
         id="tspan6599"
         x="354.85715"
         y="488.79074"
         style="font-size:9px;font-style:normal;font-variant:normal;font-weight:normal;font-stretch:normal;stroke:#000000;stroke-opacity:1;font-family:Amiri Quran;-inkscape-font-specification:Amiri Quran">Outgoing ray</tspan></text>
    <text
       xml:space="preserve"
       style="font-size:40px;font-style:normal;font-weight:normal;line-height:125%;letter-spacing:0px;word-spacing:0px;fill:#000000;fill-opacity:1;stroke:none;font-family:Sans"
       x="417.24796"
       y="-513.37823"
       id="text6601"
       sodipodi:linespacing="125%"
       transform="matrix(0,1,-1,0,0,0)"><tspan
         sodipodi:role="line"
         id="tspan6603"
         x="417.24796"
         y="-513.37823"
         style="font-size:12px;font-style:normal;font-variant:normal;font-weight:normal;font-stretch:normal;stroke:#000000;stroke-opacity:1;font-family:Amiri Quran;-inkscape-font-specification:Amiri Quran">Fluorescence detector</tspan><tspan
         sodipodi:role="line"
         x="417.24796"
         y="-498.37823"
         id="tspan6605"
         style="font-size:12px;font-style:normal;font-variant:normal;font-weight:normal;font-stretch:normal;stroke:#000000;stroke-opacity:1;font-family:Amiri Quran;-inkscape-font-specification:Amiri Quran">at π/2</tspan></text>
    <path
       sodipodi:type="arc"
       style="fill:none;stroke:#43a338;stroke-width:0.58134198;stroke-miterlimit:4;stroke-opacity:1;stroke-dasharray:none;stroke-dashoffset:0;marker-start:url(#EmptyTriangleInL)"
       id="path6628"
       sodipodi:cx="335.71429"
       sodipodi:cy="474.14789"
       sodipodi:rx="44.285713"
       sodipodi:ry="43.214287"
       d="m 380.00001,474.14789 a 44.285713,43.214287 0 0 1 -44.28571,43.21428 l -10e-6,-43.21428 z"
       sodipodi:start="0"
       sodipodi:end="1.5707963"
       transform="matrix(1.7358999,0,0,-1.6812652,-252.27563,1276.4617)" />
    <text
       xml:space="preserve"
       style="font-size:14px;font-style:normal;font-weight:normal;line-height:125%;letter-spacing:0px;word-spacing:0px;fill:url(#linearGradient7452);fill-opacity:1;stroke:#43a338;font-family:Sans;stroke-opacity:1"
       x="382.85715"
       y="427.36218"
       id="text7442"
       sodipodi:linespacing="125%"><tspan
         sodipodi:role="line"
         id="tspan7444"
         x="382.85715"
         y="427.36218"
         style="font-style:normal;font-variant:normal;font-weight:normal;font-stretch:normal;font-family:Amiri Quran;-inkscape-font-specification:Amiri Quran;font-size:14px;fill:url(#linearGradient7452);fill-opacity:1;stroke:#43a338;stroke-opacity:1">π/2</tspan></text>
    <text
       xml:space="preserve"
       style="font-size:12px;font-style:normal;font-weight:normal;line-height:125%;letter-spacing:0px;word-spacing:0px;fill:#000000;fill-opacity:1;stroke:none;font-family:Sans"
       x="268.57141"
       y="528.79077"
       id="text7454"
       sodipodi:linespacing="125%"><tspan
         sodipodi:role="line"
         id="tspan7456"
         x="268.57141"
         y="528.79077"
         style="font-size:14px;font-style:normal;font-variant:normal;font-weight:normal;font-stretch:normal;fill:#603939;fill-opacity:1;font-family:Amiri Quran;-inkscape-font-specification:Amiri Quran">Sample</tspan></text>
    <path
       style="fill:none;stroke:#c34242;stroke-width:1;stroke-linecap:butt;stroke-linejoin:miter;stroke-opacity:1;stroke-miterlimit:4;stroke-dasharray:none;marker-start:url(#Arrow1Sstart)"
       d="m 348.79298,477.79057 -18.51091,-0.0627"
       id="path3021"
       inkscape:connector-curvature="0" />
    <path
       style="fill:#a55565;stroke:#dc2f2f;stroke-width:1;stroke-linecap:butt;stroke-linejoin:miter;stroke-opacity:1;marker-start:url(#Arrow1Sstart);stroke-miterlimit:4;stroke-dasharray:none;fill-opacity:1"
       d="m 331.6245,461.34454 0.1958,16.82432"
       id="path3023"
       inkscape:connector-curvature="0" />
    <text
       xml:space="preserve"
       style="font-size:12px;font-style:normal;font-weight:normal;line-height:125%;letter-spacing:0px;word-spacing:0px;fill:#000000;fill-opacity:1;stroke:none;font-family:Sans"
       x="318.19806"
       y="488.19199"
       id="text4639"
       sodipodi:linespacing="125%"><tspan
         sodipodi:role="line"
         id="tspan4641"
         x="318.19806"
         y="488.19199"
         style="font-size:10px;fill:#cd0000;fill-opacity:1">(0, 0)</tspan></text>
    <text
       xml:space="preserve"
       style="font-size:12px;font-style:normal;font-variant:normal;font-weight:normal;font-stretch:normal;line-height:125%;letter-spacing:0px;word-spacing:0px;fill:#000000;fill-opacity:1;stroke:none;font-family:Accanthis ADF Std;-inkscape-font-specification:Accanthis ADF Std"
       x="335.71429"
       y="476.82645"
       id="text4643"
       sodipodi:linespacing="125%"><tspan
         sodipodi:role="line"
         id="tspan4645"
         x="335.71429"
         y="476.82645"
         style="font-size:8px;font-style:normal;font-variant:normal;font-weight:normal;font-stretch:normal;font-family:Sans;-inkscape-font-specification:Sans">x</tspan></text>
    <text
       xml:space="preserve"
       style="font-size:12px;font-style:normal;font-weight:normal;line-height:125%;letter-spacing:0px;word-spacing:0px;fill:#000000;fill-opacity:1;stroke:none;font-family:Sans"
       x="325.53574"
       y="470.57648"
       id="text4647"
       sodipodi:linespacing="125%"><tspan
         sodipodi:role="line"
         id="tspan4649"
         x="325.53574"
         y="470.57648"
         style="font-size:8px">y</tspan></text>
  </g>
</svg>
