<?xml version="1.0" encoding="UTF-8" standalone="no"?>
<!-- Created with Inkscape (http://www.inkscape.org/) -->

<svg
   xmlns:dc="http://purl.org/dc/elements/1.1/"
   xmlns:cc="http://creativecommons.org/ns#"
   xmlns:rdf="http://www.w3.org/1999/02/22-rdf-syntax-ns#"
   xmlns:svg="http://www.w3.org/2000/svg"
   xmlns="http://www.w3.org/2000/svg"
   xmlns:xlink="http://www.w3.org/1999/xlink"
   xmlns:sodipodi="http://sodipodi.sourceforge.net/DTD/sodipodi-0.dtd"
   xmlns:inkscape="http://www.inkscape.org/namespaces/inkscape"
   id="svg2"
   height="210mm"
   width="210mm"
   version="1.1"
   viewBox="0 0 744.09449 744.09448"
   inkscape:version="0.91 r13725"
   sodipodi:docname="srttools.svg">
  <sodipodi:namedview
     pagecolor="#ffffff"
     bordercolor="#666666"
     borderopacity="1"
     objecttolerance="10"
     gridtolerance="10"
     guidetolerance="10"
     inkscape:pageopacity="0"
     inkscape:pageshadow="2"
     inkscape:window-width="1216"
     inkscape:window-height="798"
     id="namedview17"
     showgrid="false"
     inkscape:zoom="0.63432804"
     inkscape:cx="464.03834"
     inkscape:cy="461.34418"
     inkscape:window-x="0"
     inkscape:window-y="0"
     inkscape:window-maximized="0"
     inkscape:current-layer="svg2"
     showguides="false" />
  <defs
     id="defs4">
    <marker
       inkscape:stockid="Arrow1Lend"
       orient="auto"
       refY="0.0"
       refX="0.0"
       id="Arrow1Lend"
       style="overflow:visible;"
       inkscape:isstock="true">
      <path
         id="path4470"
         d="M 0.0,0.0 L 5.0,-5.0 L -12.5,0.0 L 5.0,5.0 L 0.0,0.0 z "
         style="fill-rule:evenodd;stroke:#000000;stroke-width:1pt;stroke-opacity:1;fill:#000000;fill-opacity:1"
         transform="scale(0.8) rotate(180) translate(12.5,0)" />
    </marker>
    <marker
       inkscape:stockid="Arrow1Lstart"
       orient="auto"
       refY="0.0"
       refX="0.0"
       id="Arrow1Lstart"
       style="overflow:visible"
       inkscape:isstock="true">
      <path
         id="path4467"
         d="M 0.0,0.0 L 5.0,-5.0 L -12.5,0.0 L 5.0,5.0 L 0.0,0.0 z "
         style="fill-rule:evenodd;stroke:#000000;stroke-width:1pt;stroke-opacity:1;fill:#000000;fill-opacity:1"
         transform="scale(0.8) translate(12.5,0)" />
    </marker>
    <marker
       id="Arrow1Sstart"
       refY="0.0"
       refX="0.0"
       orient="auto"
       overflow="visible">
      <path
         id="path4162"
         d="m0 0l5-5-17.5 5 17.5 5-5-5z"
         fill-rule="evenodd"
         transform="scale(.2) translate(6)"
         stroke="#fff"
         stroke-width="1pt"
         fill="#fff" />
    </marker>
    <linearGradient
       id="linearGradient7191"
       y2="277.46"
       gradientUnits="userSpaceOnUse"
       x2="440.58"
       gradientTransform="matrix(0.96591,0,0,0.97348,12.685,-290.23)"
       y1="922.18"
       x1="253.48">
      <stop
         id="stop7187"
         stop-color="#000065"
         offset="0" />
      <stop
         id="stop7189"
         stop-color="#80e5ff"
         offset="1"
         style="stop-color:#ff9d80;stop-opacity:1" />
    </linearGradient>
    <linearGradient
       inkscape:collect="always"
       xlink:href="#linearGradient7191"
       id="linearGradient5101"
       x1="376.69427"
       y1="699.94604"
       x2="383.17041"
       y2="52.016319"
       gradientUnits="userSpaceOnUse" />
    <linearGradient
       id="linearGradient3767">
      <stop
         id="stop3800"
         offset="0"
         style="stop-color:#ffa900;stop-opacity:1;" />
      <stop
         id="stop3775"
         offset="1"
         style="stop-color:#fd0000;stop-opacity:1;" />
    </linearGradient>
    <linearGradient
       xlink:href="#linearGradient3767"
       id="linearGradient3798"
       x1="195.5511"
       y1="163.12114"
       x2="83.651718"
       y2="298.258"
       gradientUnits="userSpaceOnUse"
       spreadMethod="repeat"
       gradientTransform="matrix(1.0651076,-0.90408718,0.89013474,1.0731629,-793.01625,733.02598)" />
  </defs>
  <metadata
     id="metadata7">
    <rdf:RDF>
      <cc:Work
         rdf:about="">
        <dc:format>image/svg+xml</dc:format>
        <dc:type
           rdf:resource="http://purl.org/dc/dcmitype/StillImage" />
        <dc:title />
      </cc:Work>
    </rdf:RDF>
  </metadata>
  <ellipse
     style="fill:url(#linearGradient5101);fill-rule:evenodd;fill-opacity:1"
     cx="372.04999"
     cy="372.04001"
     ry="367.10999"
     rx="364.25"
     id="path4140" />
  <path
     style="fill:#ffffff;fill-opacity:1"
     d="m 359.41081,713.43248 c -36.5368,-11.11401 -52.37214,-53.6587 -34.84979,-93.63072 11.57922,-26.41458 11.36743,-41.26947 -0.70106,-49.1771 -3.18859,-2.08922 -15.99061,-5.47541 -28.44903,-7.52494 -18.54949,-3.05154 -26.61406,-5.68833 -44.5317,-14.5602 C 179.65477,513.273 127.2391,457.89271 107.0629,396.58892 96.191272,363.55634 90.599105,300.60426 95.306979,264.24995 101.44936,216.81831 121.06066,178.57816 156.41972,145.08609 181.1405,121.6706 206.10434,106.1783 237.68855,94.651492 c 18.56371,-6.774896 53.03963,-15.698992 54.6043,-14.134326 0.49381,0.493822 -5.14367,3.073192 -12.52771,5.73195 -66.00602,23.766804 -119.60344,71.799364 -140.44541,125.863424 -24.30045,63.03516 -13.9986,143.17532 26.05213,202.66541 20.82847,30.93793 56.81304,60.5884 89.23299,73.52595 24.57473,9.80678 66.0892,16.53725 69.36005,11.24486 0.644,-1.04198 3.10987,-21.50465 5.47973,-45.47256 9.67302,-97.82942 13.44387,-130.64111 18.41099,-160.20176 2.86756,-17.06556 6.16322,-41.82801 7.32362,-55.02761 1.91121,-21.73916 8.12662,-45.86547 12.5145,-48.57731 3.08185,-1.90469 11.13609,91.12979 11.0998,128.21361 -0.0398,40.94195 1.6824,51.7289 14.60954,91.49126 10.6565,32.77817 13.76423,50.4219 12.76334,72.46224 l -0.78602,17.30843 31.05423,-0.94761 c 26.13535,-0.79752 33.76584,-1.84065 48.1733,-6.5857 23.51555,-7.74476 41.76253,-18.92322 61.59457,-37.73396 63.81009,-60.52417 85.11635,-164.54161 51.75368,-252.66193 C 580.21251,154.94992 540.14667,112.84331 490.409,88.790711 c -9.43782,-4.56402 -19.3767,-8.877984 -22.08634,-9.586559 -9.8434,-2.57411 -2.21974,-3.621352 9.01839,-1.238833 15.51686,3.289596 22.94385,7.164581 80.39559,41.945681 29.3463,17.76613 57.99883,48.71267 72.90183,78.73855 14.88404,29.98771 20.49297,56.98923 20.44751,98.43471 -0.0529,48.45236 -10.02415,90.77231 -31.33185,132.98161 -40.09697,79.42986 -117.15349,134.41746 -201.48264,143.7783 l -12.83931,1.42518 -1.81759,15.60065 c -1.85044,15.88299 -0.50137,24.92315 8.36972,56.08553 6.43794,22.61514 0.25538,47.42981 -14.55695,58.42734 -12.2134,9.06788 -25.45305,11.87123 -38.01655,8.04961 z M 246.01072,320.62301 c -1.48286,-5.29621 -3.57227,-9.62947 -4.64312,-9.62947 -1.07086,0 -5.7221,1.92588 -10.33607,4.27976 -4.61397,2.35388 -8.92509,4.27978 -9.5803,4.27978 -0.65519,0 1.21267,-4.74392 4.15079,-10.54197 l 5.34202,-10.542 -11.19066,-3.73162 -11.19065,-3.73163 8.55953,-3.85607 c 4.70776,-2.12085 9.45898,-4.18261 10.55834,-4.58169 1.09932,-0.39909 0.3368,-4.87925 -1.69445,-9.95593 -2.0313,-5.07666 -3.26481,-9.65877 -2.74115,-10.18244 0.52367,-0.52366 4.931,1.07775 9.79406,3.5587 l 8.84194,4.51081 2.81888,-7.03639 c 1.55036,-3.87001 3.54601,-8.96228 4.43471,-11.31616 1.38579,-3.67044 2.04373,-3.06112 4.62106,4.27976 1.65286,4.70776 3.45349,9.78524 4.0014,11.28333 0.78067,2.13444 2.74296,1.97666 9.06919,-0.7293 4.4401,-1.89918 9.36631,-3.98455 10.94709,-4.63413 1.94012,-0.79722 1.41855,1.67226 -1.60492,7.59869 -2.46347,4.82884 -4.47907,9.70636 -4.47907,10.8389 0,1.13255 3.61106,3.21313 8.02458,4.62351 12.08443,3.86171 12.66588,5.72641 2.71532,8.70767 -4.97503,1.49057 -9.49394,3.87873 -10.04202,5.30703 -0.54812,1.42829 1.01611,6.54204 3.47604,11.36392 2.45993,4.82185 3.93321,8.76701 3.27393,8.76701 -0.65927,0 -5.04515,-1.96232 -9.74637,-4.3607 -4.70121,-2.3984 -9.30753,-3.89109 -10.23625,-3.31713 -0.92875,0.57401 -2.97573,4.94369 -4.54892,9.71044 -1.57315,4.76675 -3.54396,8.6668 -4.37958,8.6668 -0.83559,0 -2.7325,-4.33327 -4.21535,-9.62948 z"
     id="path4335"
     inkscape:connector-curvature="0"
     sodipodi:nodetypes="sssssssssssssscssssssscsssssssssssscssssssssscccssssscsssssssssscsssssss" />
  <path
     sodipodi:type="star"
     style="opacity:0;fill:#000000;fill-opacity:1;stroke:#ffffff;stroke-width:10;stroke-linecap:round;stroke-linejoin:round;stroke-miterlimit:6.5;stroke-dasharray:none;stroke-opacity:1"
     id="path4385"
     sodipodi:sides="3"
     sodipodi:cx="37.835312"
     sodipodi:cy="-190.75304"
     sodipodi:r1="240.71021"
     sodipodi:r2="120.3551"
     sodipodi:arg1="0.51345974"
     sodipodi:arg2="1.5606573"
     inkscape:flatsided="true"
     inkscape:rounded="0"
     inkscape:randomized="0"
     d="M 247.50601,-72.517679 -169.39486,-68.290561 35.394784,-431.45087 Z"
     inkscape:transform-center-x="-1.2202635"
     inkscape:transform-center-y="-59.117677" />
  <path
     sodipodi:type="star"
     style="opacity:0;fill:#000000;fill-opacity:1;stroke:#000000;stroke-width:10;stroke-linecap:round;stroke-linejoin:round;stroke-miterlimit:6.5;stroke-dasharray:none;stroke-opacity:1"
     id="path4391"
     sodipodi:sides="3"
     sodipodi:cx="829.22394"
     sodipodi:cy="-100.89417"
     sodipodi:r1="171.79922"
     sodipodi:r2="85.899612"
     sodipodi:arg1="0.82433951"
     sodipodi:arg2="1.8715371"
     inkscape:flatsided="false"
     inkscape:rounded="0"
     inkscape:randomized="0"
     d="M 945.88282,25.223542 803.77808,-18.849966 661.67335,-62.923472 770.8945,-163.95303 l 109.22114,-101.02956 32.88359,145.10307 z"
     inkscape:transform-center-x="25.44585"
     inkscape:transform-center-y="-18.98535" />
  <path
     style="opacity:0;fill:#ffffff;fill-opacity:1;stroke:#af3e3e;stroke-width:10;stroke-linecap:round;stroke-linejoin:round;stroke-miterlimit:6.5;stroke-dasharray:none;stroke-opacity:1"
     id="path4455"
     d="m 361.80018,154.49419 c 0,-3.61274 0,-7.22549 0,-10.83824 -0.19375,-3.42423 -2.68421,-3.19439 -1.74852,-7.24182 0.41805,-1.27506 0.18283,-2.06583 0.14763,-3.48253 -0.004,-1.241 0.0347,-2.48095 0.0275,-3.7218 -0.006,-1.14047 -0.005,-2.28096 -0.003,-3.42144 -2.8e-4,-1.32678 -5e-4,-2.65355 -4.4e-4,-3.98033 -0.0742,-0.0161 0.0571,-2.10552 6e-5,-2.10113 -0.44564,0.0342 -0.10769,4.00236 -0.25665,-1.23478 0.26165,-0.13998 0.91422,-1.70047 0.36423,-1.86443 -0.16324,-0.0487 -0.20733,0.27033 -0.31099,0.4055 -0.3803,-0.28696 -0.7606,-0.57391 -1.14089,-0.86087 -1.40106,-1.18264 0.0624,-2.40749 -0.12747,-3.73421 -0.9812,0.0525 -0.53711,0.16597 -1.50653,-1.14326 -1.04383,-1.40972 -0.5066,-3.18201 -0.1543,-4.74935 -0.16537,-0.81286 0.39203,-2.48018 0.0327,-3.33887 -0.0787,-0.1881 -0.0263,0.67847 -0.20316,0.57696 -4.30227,-2.46952 -0.38723,-1.13838 -1.49214,-1.50436 3.03188,-0.74642 -0.67141,-0.16842 0.12934,-2.295044 0,0 1.46249,0.588544 1.46249,0.588544 l 0,0 c -0.45902,1.01897 -3.71066,2.41904 -0.72462,0.38999 0.83276,0.63419 0.5068,0.22326 0.92472,1.27317 0.41792,0.3984 1.14399,0.43197 1.47838,0.90268 0.61426,0.8647 -0.63703,3.03237 -0.0704,3.75617 -0.71754,3.12111 -0.66318,3.166 1.69995,5.53008 -0.0492,1.02012 -0.0533,0.98599 -0.33582,1.82637 -0.0651,0.1938 -0.0356,0.45082 -0.19196,0.58253 -0.0839,0.0707 -0.21809,-0.38002 -0.15491,-0.29035 0.0938,0.13318 0.16488,0.28101 0.24732,0.42152 0.57212,0.58401 1.43171,0.83344 1.99665,1.42441 0.68124,0.71263 -0.14937,2.35655 -0.62108,2.99239 -0.27964,-0.20967 -1.13206,-0.81936 -0.83891,-0.62903 0.4701,0.30523 0.99326,0.55968 1.37053,0.9742 0.3193,0.35083 -0.20038,1.65053 -6e-5,2.10124 -6e-5,1.32774 1.7e-4,2.65548 4.3e-4,3.98322 -0.002,1.13644 -0.003,2.27289 0.003,3.40932 0.007,1.23163 -0.0305,2.46236 -0.0279,3.69409 0.0292,1.33741 0.2678,2.61424 -0.19721,3.91333 -0.82536,2.71821 2.0319,4.14174 1.79853,6.84789 0,3.61275 0,7.2255 0,10.83824 0,0 -1.57647,0 -1.57647,0 z"
     inkscape:connector-curvature="0" />
  <path
     style="opacity:0;fill:#ffffff;fill-opacity:1;stroke:#af3e3e;stroke-width:10;stroke-linecap:round;stroke-linejoin:round;stroke-miterlimit:6.5;stroke-dasharray:none;stroke-opacity:1"
     id="path4457"
     d="m 400.42373,-120.60006 c -1.57647,0 -3.17442,-0.25935 -4.72942,0 -1.5572,0.25972 -3.00944,0.96212 -4.48015,1.53602 -9.64104,3.76213 -1.39467,0.88606 -12.47823,6.24714 -2.37997,1.15119 -7.40255,2.74403 -9.98648,3.60581 -1.2403,0.45708 -2.48057,0.91423 -3.72089,1.37126 -1.24802,0.45986 -2.43092,1.16838 -3.74412,1.37941 -1.49017,0.23947 -3.024,-0.18118 -4.52759,-0.0501 -1.27741,0.11133 -2.49435,0.62718 -3.76826,0.77314 -5.90583,0.67667 -1.30778,-0.89989 -6.26009,1.23731 -3.75624,1.24936 -7.26899,-0.11833 -10.96107,-0.44288 -1.79968,-0.15819 -3.11798,-0.0841 -4.90789,-0.0465 -0.88729,0.0337 -1.77452,0.0691 -2.66186,0.1012 -0.75328,0.0273 -1.5243,-0.087 -2.25999,0.0771 -1.5395,0.34336 -2.51794,1.76824 -4.18813,1.92966 -1.06264,0.1027 -2.13516,0.007 -3.20274,0.0106 -2.51264,0.13266 -5.27146,-1.04438 -7.79036,-0.43456 -0.73202,0.17722 -1.41085,0.52776 -2.11628,0.79165 -7.30961,0.14363 0.30098,-0.35548 -6.88989,1.21122 -1.23035,0.26806 -2.52647,0.13799 -3.7547,0.41557 -1.36383,0.30823 -2.61135,1.034556 -3.97757,1.331956 -2.4551,0.534426 -4.99537,0.554671 -7.48227,0.913009 -2.39741,1.295964 -4.96805,2.266518 -7.59667,2.982574 -1.04026,0.283374 -2.20166,0.193533 -3.16102,0.685555 -0.51212,0.262649 -0.64403,0.954056 -0.96605,1.431084 -0.87955,0.279442 -1.7591,0.558884 -2.63865,0.838325 -2.00506,1.953536 1.52938,1.831124 -2.35729,3.348627 0.42635,0.886568 0.4812,1.567324 0.63413,2.413122 -0.10747,1.052568 -0.12007,2.064973 -0.087,3.124725 0.59754,-0.845074 0.1555,-0.503839 1.3906,0.720428 0.4993,0.494928 -1.63498,-1.545444 0.16725,-0.671037 1.59745,0.775052 1.54009,0.968341 1.94499,2.076356 0.0298,-3.026548 2.23297,3.238623 1.5097,2.488354 -1.69347,-1.756667 -0.0924,-1.137105 0.78376,-1.00912 2.65645,5.963306 -1.45064,-1.600197 1.67026,1.644277 1.37679,1.4313 0.0768,2.250303 1.02214,1.541165 0.91784,-0.319456 -0.1609,1.98098 0.5584,2.134975 0.2176,0.04659 0.46628,-0.333087 0.38973,-0.542036 -0.0671,-0.183062 -0.77926,0.02373 -0.58481,0.0096 2.19358,-0.159645 1.28042,-0.423582 2.88055,1.368227 0.46174,0.553828 0.19104,1.447458 0.62781,1.987952 0.12282,0.151986 0.42716,-0.387092 0.5402,-0.227695 0.39475,0.556664 0.3079,1.356143 0.67015,1.934486 0.31566,0.503963 0.98938,0.700633 1.33218,1.186544 1.32515,-0.948612 0.13908,-0.394407 2.38768,1.087381 3.38619,2.231438 -2.69071,-3.488459 2.12614,2.1632 0.10657,0.125048 0.35787,-0.04704 0.49035,0.05014 0.55184,0.404776 0.99708,0.93772 1.49562,1.406581 1.83332,-0.601699 1.60068,1.330255 2.86854,1.803654 0.34809,0.129974 0.79148,-0.389154 1.09978,-0.181759 2.15809,1.451736 0.17094,2.006395 1.66184,1.428072 6.26716,4.498261 -1.33981,-0.49085 3.63427,1.670712 0.795,0.345477 1.38722,1.064687 2.17641,1.42323 4.10221,1.863709 -1.14201,-1.140936 2.61499,-0.127352 0.78589,0.212021 1.40851,0.816333 2.11277,1.224499 2.63871,2.290446 5.14889,4.776161 8.50564,6.044809 0.26662,0.100768 6.74053,1.56269 6.92303,1.604195 1.08675,0.119645 2.21221,0.04757 3.26026,0.358935 4.00042,1.18848 7.36445,4.248875 11.1252,5.952506 3.28755,1.489267 6.97855,2.402786 10.42471,3.390456 1.27756,0.484879 2.48837,1.209435 3.83267,1.454638 1.00575,0.183451 2.05248,-0.366755 3.06068,-0.197277 1.69449,0.284844 3.25123,1.128355 4.91975,1.538789 1.45302,0.357421 2.9773,0.378404 4.42423,0.759701 2.90924,0.766647 5.69129,1.955461 8.56201,2.855679 1.7873,0.126317 3.59868,0.0604 5.36189,0.37895 1.5669,0.283082 3.00465,1.085686 4.56268,1.414063 1.25095,0.263655 2.55871,0.138241 3.81906,0.352509 1.95986,0.333191 3.85515,1.007902 5.82348,1.286792 2.81227,0.398467 5.67594,0.339795 8.49037,0.722698 1.23009,0.09768 2.4685,0.120016 3.69027,0.293035 1.53456,0.217314 3.02293,0.734422 4.56631,0.876206 4.4203,0.406075 8.93981,-0.934075 13.33364,-1.27431 2.37392,0.115221 5.02462,-0.09345 7.17795,1.144412 0.90116,0.518038 1.53306,1.404525 2.31904,2.084737 0.52958,0.06166 1.08505,0.01017 1.58874,0.184976 0.70987,0.246368 1.27169,0.839616 1.99086,1.057359 1.05968,0.320838 2.17674,-0.71902 3.27316,-0.564958 0.99186,0.13937 1.83312,0.811944 2.77541,1.151523 0.58545,0.210985 1.19967,0.331455 1.7995,0.497182 3.89989,-0.479533 3.56878,1.968972 5.61763,3.714467 0.38724,0.329909 1.02131,0.140024 1.48638,0.346204 0.74951,0.332285 1.34108,0.987904 2.11742,1.251483 0.45478,0.154401 0.9601,-0.0291 1.44015,-0.04364 0.6733,0.393468 1.42598,0.675027 2.0199,1.180405 3.85189,3.27763 0.76672,0.650369 1.74478,3.115216 0.10583,0.266718 0.4158,0.395554 0.62371,0.593332 0.0354,0.204487 0.29092,0.70828 0.10631,0.613461 -0.42038,-0.215915 -0.63596,-0.699214 -0.95394,-1.048821 0.57742,0.249804 2.61704,0.563875 2.72562,1.778692 0.0191,0.213448 -0.26191,-0.33926 -0.39287,-0.508889 0.34643,0.300182 0.83952,0.487974 1.03929,0.900547 0.24112,0.497994 0.12992,1.098941 0.19489,1.648412 0,0 -1.57258,0.110763 -1.57258,0.110763 l 0,0 c 0.003,-0.324977 -0.1182,-0.676342 0.0101,-0.974933 0.0621,-0.144424 0.58258,-0.01817 0.45769,-0.113639 -1.5497,-1.184689 -1.12692,0.316368 -1.29882,-1.777041 -0.59351,-0.04834 -1.18966,-0.21901 -1.78051,-0.145016 -0.12386,0.01551 0.18455,0.463229 0.12794,0.351972 -0.86331,-1.696549 -1.01014,-2.896438 -3.11071,-4.149101 -0.7308,-0.06004 -1.49448,0.04478 -2.1924,-0.180109 -0.67737,-0.21827 -1.18645,-0.792592 -1.82173,-1.113366 -0.73577,-0.371515 -1.64218,-0.435278 -2.27978,-0.957623 -1.82568,-1.495657 -0.68035,-3.423737 -4.73783,-3.075892 -0.68451,-0.197799 -1.39794,-0.314299 -2.05352,-0.593396 -0.62593,-0.266482 -1.08653,-0.945589 -1.76148,-1.030767 -0.81939,-0.103407 -1.60381,0.426542 -2.42622,0.502282 -2.3671,0.217998 -3.43605,-1.413396 -5.79091,-1.530903 -0.63661,-0.55473 -1.07742,-1.344386 -1.7982,-1.784234 -1.94203,-1.185089 -4.38432,-0.924687 -6.54459,-1.063227 -4.56174,0.34544 -9.15529,1.667832 -13.75274,1.250359 -1.48553,-0.134894 -2.91598,-0.643839 -4.39293,-0.852639 -1.25116,-0.176879 -2.51913,-0.201735 -3.77869,-0.302602 -2.85655,-0.393274 -5.76315,-0.342186 -8.61828,-0.745609 -1.90513,-0.26919 -3.73729,-0.931755 -5.63371,-1.256657 -1.36723,-0.23424 -2.78323,-0.131133 -4.14042,-0.417886 -1.44041,-0.304336 -2.75787,-1.084002 -4.20663,-1.345715 -1.8809,-0.339777 -3.81106,-0.297914 -5.71659,-0.446872 -2.80451,-0.880179 -5.51704,-2.058426 -8.35962,-2.806602 -1.51843,-0.399655 -3.11749,-0.42813 -4.63974,-0.81296 -1.48825,-0.376232 -2.85296,-1.206807 -4.36636,-1.463807 -1.21287,-0.205966 -2.47827,0.311461 -3.68946,0.0958 -1.30195,-0.231828 -2.47145,-0.941902 -3.70718,-1.412853 -3.75146,-1.078281 -7.19514,-1.914967 -10.76325,-3.532057 -2.66006,-1.205554 -5.06777,-2.90569 -7.63968,-4.289359 -0.95101,-0.511637 -1.85091,-1.165511 -2.88697,-1.470098 -1.10551,-0.325004 -2.28999,-0.258976 -3.43499,-0.388464 -0.84915,-0.193159 -6.58502,-1.470556 -7.31673,-1.751183 -3.41183,-1.30851 -6.016,-3.81365 -8.69549,-6.164424 -1.56644,-1.751914 0.004,-0.539909 -2.702,-0.623088 -3.01944,-0.09283 -1.0664,-0.523319 -3.56584,-1.619627 -4.52483,-1.984689 -0.36696,1.027776 -3.72777,-1.691602 -0.56002,-0.266775 -1.12004,-0.53355 -1.68006,-0.800324 0.11104,-0.193488 0.53318,-0.481721 0.33314,-0.580463 -0.66462,-0.328048 -1.53012,-0.01714 -2.19741,-0.33972 -5.07116,-2.451538 4.33071,-0.20826 -2.79816,-1.730179 -0.3601,-0.371506 -0.6808,-0.785759 -1.08031,-1.114517 -0.37261,-0.306618 -0.91477,-0.405248 -1.22036,-0.778704 -0.23515,-0.287387 -0.0272,-0.817463 -0.29567,-1.074052 -0.41738,-0.398979 -1.13097,-0.349798 -1.5772,-0.716231 -2.17871,-1.789117 2.25477,-0.637228 -2.53634,-1.277582 -0.42203,-0.714836 -1.25409,-1.15781 -1.58945,-1.917178 -0.097,-0.219676 0.59412,-0.38076 0.44346,-0.567771 -1.84956,-2.295943 -1.49024,0.529299 -1.90507,-2.239232 -0.31691,-0.384043 -0.88639,-0.658387 -0.95074,-1.15213 -0.0413,-0.317092 0.92177,-0.882786 0.7176,-0.636674 -2.69704,3.251122 -4.2011,-2.587638 -2.39853,-0.746536 -0.41997,-0.285255 -0.9613,-0.445189 -1.25991,-0.855766 -0.21114,-0.290298 0.49006,-0.927071 0.1587,-1.065116 -1.91971,-0.799777 -1.88807,0.271094 -1.6132,-1.273485 0.24735,-0.930773 0.19896,-0.305037 -1.72811,-0.747407 0.0162,0.01437 0.0471,0.06472 0.0486,0.04311 0.10031,-1.38593 0.0223,-1.208371 -1.49817,-1.709242 -0.0496,-0.150398 -0.19362,-0.299333 -0.14873,-0.451195 0.0907,-0.306879 0.82421,-0.70558 0.52057,-0.806628 -0.40693,-0.135426 -0.71439,0.531034 -1.13746,0.601329 -1.32769,0.220599 -1.72225,-1.526738 -2.82553,-1.945463 -0.0342,-1.284603 0.0503,-2.129144 0.0869,-3.126069 -0.30223,-1.274459 -0.71523,-2.650503 0.62602,-4.002267 0.33608,-0.0462 0.80362,-0.409182 1.00824,-0.138601 0.21664,0.286467 -10e-4,1.142806 -0.33982,1.022486 -0.81202,-0.288717 0.33193,-4.328631 1.60886,-4.213973 4.96018,-0.866238 -1.89319,0.705819 3.66816,-2.284472 0.90317,-0.485622 2.01837,-0.376074 3.00807,-0.644442 2.71985,-0.737516 5.33606,-1.794697 7.85738,-3.043026 2.3962,-0.34418 4.84719,-0.33435 7.21252,-0.8496 1.4748,-0.32127 2.8703,-0.93509 4.30545,-1.40263 1.14462,-0.11573 2.30898,-0.10598 3.43386,-0.34721 7.0001,-1.50115 0.92107,-1.24207 6.84861,-1.19717 0.86232,-0.29393 1.69975,-0.67483 2.58696,-0.88181 2.54673,-0.59412 5.31697,0.51643 7.85832,0.43354 0.92097,0.0164 1.84365,0.10738 2.76291,0.0491 1.69118,-0.10728 2.93145,-1.61879 4.56406,-1.98843 0.73317,-0.166 1.50265,-0.0497 2.25389,-0.0769 0.89657,-0.0324 1.79302,-0.068 2.68952,-0.10202 1.95828,-0.0388 3.1989,-0.11383 5.17906,0.0644 3.40481,0.30641 6.65106,1.60601 10.12424,0.54242 6.08867,-2.3862 0.4699,-0.6338 6.54874,-1.32446 1.38833,-0.15773 2.72144,-0.68991 4.11409,-0.80333 1.31189,-0.10684 2.64631,0.35522 3.94595,0.14692 2.63467,-0.42226 4.87581,-2.34828 7.51147,-2.76697 2.35146,-0.7834 7.55202,-2.43921 9.71941,-3.48832 5.49706,-2.66083 11.47554,-6.94085 17.72398,-7.98155 1.55506,-0.259 3.15295,0 4.72942,0 0,0 0,1.57647 0,1.57647 z"
     inkscape:connector-curvature="0" />
  <g
     id="g5973"
     transform="matrix(0.91161786,0,0,0.91161786,893.82825,-492.18832)">
    <path
       style="fill:none;stroke:#ffffff;stroke-width:17.5;stroke-linecap:butt;stroke-linejoin:miter;stroke-miterlimit:4;stroke-dasharray:none;stroke-opacity:1"
       id="path5413"
       d="m -432.67727,853.96792 c -30.13977,-27.29324 -47.35181,11.78886 -31.34262,35.93006 17.60038,26.54069 55.46899,25.91514 77.74644,6.09118 28.21167,-25.10462 27.48265,-70.09476 2.76084,-97.20869"
       inkscape:connector-curvature="0" />
    <path
       style="fill:#ffffff;fill-opacity:1;stroke:none"
       id="path3819"
       d="m -414.45649,875.98752 a 29.804826,16.854322 34.290151 0 1 -35.64023,-6.39817 29.804826,16.854322 34.290151 0 1 -11.08348,-30.17923 29.804826,16.854322 34.290151 0 1 35.64024,6.39818 29.804826,16.854322 34.290151 0 1 11.08347,30.17922 z"
       inkscape:connector-curvature="0" />
    <path
       style="fill:#ffffff;fill-opacity:1;stroke:#ffffff;stroke-width:2.36031604;stroke-linecap:round;stroke-linejoin:round;stroke-miterlimit:4;stroke-dasharray:none;stroke-opacity:1"
       d="m -405.97064,787.46846 13.09858,22.19599 20.1541,-20.02439 -25.57713,-10.69003 z"
       id="path3853"
       inkscape:connector-curvature="0" />
    <g
       id="g3804"
       transform="matrix(0.95039189,0,0,0.93299787,-545.3419,800.00897)">
      <path
         id="path3855-7"
         d="m 142.07904,-24.83606 -2.29208,-13.70422 0.18559,0.452199 0,0"
         style="fill:none;stroke:#ffffff;stroke-width:3.72635746;stroke-linecap:butt;stroke-linejoin:miter;stroke-miterlimit:4;stroke-dasharray:none;stroke-opacity:1"
         inkscape:connector-curvature="0" />
      <path
         id="path3855-7-0"
         d="m 127.81295,-26.11257 15.12343,0.663566 -0.4755,0.06597 0,0"
         style="fill:none;stroke:#ffffff;stroke-width:4.02542162;stroke-linecap:butt;stroke-linejoin:miter;stroke-miterlimit:4;stroke-dasharray:none;stroke-opacity:1"
         inkscape:connector-curvature="0" />
      <path
         id="path3855-7-05"
         d="m 150.77669,-18.240009 -9.57586,-7.57806 0.46343,0.302121 0,0"
         style="fill:none;stroke:#ffffff;stroke-width:4.06302309;stroke-linecap:butt;stroke-linejoin:miter;stroke-miterlimit:4;stroke-dasharray:none;stroke-opacity:1"
         inkscape:connector-curvature="0" />
    </g>
    <path
       style="fill:none;stroke:#ffffff;stroke-width:17.45736313;stroke-linecap:butt;stroke-linejoin:miter;stroke-miterlimit:4;stroke-dasharray:none;stroke-opacity:1"
       d="m -475.37778,932.31015 c 3.41066,2.96251 14.80417,7.71706 18.76617,12.74152 4.04136,5.12504 3.40767,10.98393 3.37162,14.32634"
       id="path3942"
       inkscape:connector-curvature="0" />
    <path
       style="fill:none;stroke:#ffffff;stroke-width:17.5;stroke-linecap:butt;stroke-linejoin:miter;stroke-miterlimit:4;stroke-dasharray:none;stroke-opacity:1"
       id="path2987-5"
       d="m -440.62937,865.48231 c 36.94489,20.28444 44.50726,-22.70434 22.4956,-43.10582 -24.19949,-22.42923 -61.97266,-13.05882 -79.3767,11.87549 -22.22029,31.83442 -9.95975,76.94376 21.97141,98.1239 1.18761,0.78775 2.39662,1.54189 3.62498,2.26139"
       inkscape:connector-curvature="0" />
  </g>
</svg>
